<svg id="Capa_1" enable-background="new 0 0 514.869 514.869" height="512" viewBox="0 0 514.869 514.869" width="512" xmlns="http://www.w3.org/2000/svg"><g><g><path d="m314.331 340.997s26.399 28.348 29.082 47.542l.878 6.279c.714 5.105 7.579 6.251 9.912 1.654l4.199-8.273c10.906-21.489 7.827-47.427-7.807-65.765l-11.388-13.358-40.994-53.52-40.779 38.656z" fill="#f8f6f6"/><path d="m201.538 340.997c-15.866 11.13-26.399 28.348-29.082 47.542l-.878 6.279c-.714 5.105-7.579 6.251-9.912 1.654l-4.199-8.273c-10.906-21.489-7.827-47.427 7.807-65.765l11.388-13.358 49.249-52.313s39.987 34.534 38.988 34.534c-1 0-63.361 49.7-63.361 49.7z" fill="#f8f6f6"/><g id="XMLID_232_"><g><path d="m505.675 102.733v86.47c0 16.98-4.89 33.2-13.61 47s-21.28 25.17-36.62 32.45c-31.65 15.01-69.19 9.82-95.56-13.23l-8.67-7.57-93.28-46.79 5.35-102.71 63.75-62.96c17.86-17.86 42.08-27.89 67.33-27.89h16.08c52.59 0 95.23 42.63 95.23 95.23z" fill="#cecece"/></g></g><path d="m187.838 35.392s-42.08-27.892-67.337-27.892h-16.078c-52.593 0-95.228 42.635-95.228 95.228v86.477c0 33.959 19.553 64.882 50.232 79.443 31.644 15.018 69.183 9.825 95.56-13.221l8.672-7.577 74.065-77.727v-74.961z" fill="#cecece"/><g><g id="XMLID_231_"><g><path d="m371.439 253.272-1.16-29.345c-.242-6.157 1.146-12.297 4.005-17.743l8.369-15.907c6.189-11.761 9.461-25.01 9.461-38.314 0-17.747-5.572-34.67-16.12-48.952-2.882-3.897-5.051-8.213-6.455-12.855l-11.713-38.537c-2.557-8.447-6.408-16.429-11.447-23.725-1.204-1.743-2.467-3.445-3.789-5.086-5.567 3.608-10.793 7.82-15.556 12.584l-63.75 62.96-5.35 102.71 93.28 46.79 8.67 7.57c3.647 3.188 7.522 6.043 11.55 8.541.147-3.536.147-7.117.005-10.691z" fill="#bfbfbf"/><path d="m187.838 35.392s-6.826-4.524-16.628-9.927c-5.82 7.821-10.274 16.622-13.161 26.132l-11.73 38.595c-.69 2.285-1.585 4.526-2.671 6.686-1.075 2.143-2.34 4.201-3.777 6.141-18.649 25.237-21.262 59.487-6.655 87.258l8.362 15.895c2.867 5.461 4.255 11.601 4.013 17.753l-.089 2.262c-.57 14.429-14.786 24.333-28.507 19.832-3.478-1.141-6.911-2.509-10.276-4.106l-1.641-.821c-29.78-14.89-48.591-45.327-48.591-78.622v-86.479c0-25.68 10.178-48.987 26.703-66.115-42.367 9.654-73.995 47.562-73.995 92.852v86.477c0 33.959 19.553 64.882 50.232 79.443 31.644 15.018 69.183 9.825 95.56-13.221l5.753-5.026 2.919-2.55 74.065-77.727v-74.962z" fill="#bfbfbf"/><path d="m302.435 360.593-7.16 48.56c-.01.11-.03.22-.04.34l-6.34 69.17c-1.49 16.26-15.13 28.71-31.46 28.71-8.16 0-15.66-3.11-21.3-8.26-5.63-5.14-9.42-12.32-10.16-20.45l-6.34-69.17c-.01-.12-.03-.23-.04-.34l-7.18-48.69c-.66-4.55-3.88-13.27-3.88-13.27l-7-6.2c-24.8-21.93-38.43-53.85-37.12-86.93l1.16-29.35c.38-9.67-1.79-19.27-6.29-27.84l-8.37-15.91c-11.13-21.16-9.17-46.83 5.04-66.06 2.12-2.86 3.98-5.89 5.57-9.06 1.59-3.16 2.91-6.46 3.94-9.87l11.72-38.56c3.95-13.01 11.87-24.47 22.64-32.78 4.57-3.53 9.56-6.41 14.84-8.61 5.28-2.19 10.85-3.7 16.57-4.45 8.86-1.17 17.78-1.75 26.7-1.75s17.84.58 26.7 1.75c5.72.75 11.29 2.26 16.57 4.45 5.28 2.2 10.27 5.08 14.84 8.61 5.39 4.15 10.06 9.1 13.88 14.63s6.79 11.64 8.76 18.15l11.72 38.56c2.06 6.81 5.28 13.21 9.51 18.93 8.08 10.94 12.2 23.96 12.2 37.06 0 9.92-2.36 19.88-7.16 29l-8.37 15.91c-4.5 8.57-6.67 18.17-6.29 27.84l1.16 29.35c1.31 33.08-12.32 65-37.12 86.93l-7 6.2s-4.21 8.74-4.9 13.4z" fill="#cecece"/><path d="m279.193 475.622-6.34-69.17c-.01-.12-.03-.23-.04-.34l-7.18-48.69c-.067-.463-.161-.97-.275-1.506-1.484-6.97-5.27-13.24-10.605-17.964-24.8-21.93-38.43-53.85-37.12-86.93l1.16-29.35c.38-9.67-1.79-19.27-6.29-27.84l-8.37-15.91c-11.13-21.16-9.17-46.83 5.04-66.06 2.12-2.86 3.98-5.89 5.57-9.06 1.59-3.16 2.91-6.46 3.94-9.87l11.72-38.56c3.95-13.01 11.87-24.47 22.64-32.78 4.57-3.53 9.56-6.41 14.84-8.61 2.27-.941 4.622-1.774 6.988-2.458-5.627-.467-11.294-.701-16.937-.701-8.92 0-17.84.58-26.7 1.75-5.72.75-11.29 2.26-16.57 4.45-5.28 2.2-10.27 5.08-14.84 8.61-10.77 8.31-18.69 19.77-22.64 32.78l-11.72 38.56c-1.03 3.41-2.35 6.71-3.94 9.87-1.59 3.17-3.45 6.2-5.57 9.06-14.21 19.23-16.17 44.9-5.04 66.06l8.37 15.91c4.5 8.57 6.67 18.17 6.29 27.84l-1.16 29.35c-1.31 33.08 12.32 65 37.12 86.93l7 6.2s3.22 8.72 3.88 13.27l7.18 48.69c.013.106.025.213.038.319l6.342 69.191c.74 8.13 4.53 15.31 10.16 20.45 5.64 5.15 13.14 8.26 21.3 8.26 11.775 0 22.15-6.475 27.581-16.182-3.201-4.442-5.293-9.761-5.822-15.569z" fill="#bfbfbf"/></g></g><g fill="#838383"><circle cx="195.388" cy="170.124" r="15.381"/><circle cx="320.481" cy="170.124" r="15.381"/></g></g></g><g><path d="m285.74 296.735c2.739 0 5.378-1.506 6.699-4.117 1.869-3.696.388-8.208-3.308-10.078-19.534-9.879-42.858-9.879-62.393 0-3.696 1.87-5.177 6.381-3.308 10.078 1.87 3.696 6.381 5.178 10.078 3.308 15.296-7.736 33.558-7.736 48.854 0 1.085.549 2.24.809 3.378.809z"/><path d="m275.07 318.763c-10.729-5.426-23.541-5.426-34.271 0-3.696 1.869-5.177 6.381-3.308 10.078 1.87 3.696 6.383 5.179 10.078 3.308 6.49-3.282 14.241-3.282 20.731 0 1.085.549 2.241.809 3.379.809 2.739 0 5.378-1.506 6.699-4.117 1.869-3.696.388-8.209-3.308-10.078z"/><path d="m278.378 370.563c1.869-3.696.388-8.208-3.308-10.078-10.729-5.427-23.541-5.427-34.271 0-3.696 1.87-5.177 6.381-3.308 10.078 1.87 3.697 6.383 5.177 10.078 3.308 6.491-3.283 14.24-3.283 20.731 0 1.085.549 2.24.809 3.379.809 2.739 0 5.378-1.506 6.699-4.117z"/><path d="m275.773 414.811c1.869-3.696.388-8.208-3.308-10.078-9.099-4.602-19.963-4.602-29.062 0-3.696 1.869-5.177 6.381-3.308 10.078 1.87 3.697 6.382 5.178 10.078 3.308 4.859-2.458 10.663-2.458 15.522 0 1.085.549 2.241.809 3.379.809 2.739 0 5.379-1.506 6.699-4.117z"/><path d="m248.242 445.255c-3.696 1.869-5.177 6.381-3.308 10.078 1.87 3.697 6.383 5.178 10.078 3.308 1.83-.926 4.017-.926 5.847 0 1.085.549 2.241.809 3.379.809 2.739 0 5.378-1.505 6.699-4.117 1.869-3.696.388-8.208-3.308-10.078-6.071-3.069-13.318-3.069-19.387 0z"/><path d="m499.241 51.05c-2.087-3.579-6.68-4.787-10.257-2.701-3.578 2.087-4.787 6.679-2.701 10.257 7.779 13.339 11.891 28.596 11.891 44.121v86.478c0 30.896-18.036 59.42-45.948 72.667-28.958 13.744-63.27 8.998-87.41-12.093l-6.24-5.452-.788-19.912c-.331-8.345 1.549-16.663 5.438-24.054l8.365-15.903c12.391-23.556 10.175-52.606-5.646-74.011-3.729-5.045-6.545-10.647-8.369-16.651l-1.48-4.872 14.915-12.939c9.772-8.478 22.278-13.146 35.216-13.146h36.518c4.142 0 7.5-3.358 7.5-7.5s-3.358-7.5-7.5-7.5h-36.518c-16.548 0-32.546 5.972-45.045 16.816l-9.86 8.554-5.46-17.974c-2.053-6.758-5.038-13.089-8.838-18.872 15.932-13.806 36.051-21.363 57.344-21.363h16.078c20.823 0 41.012 7.428 56.847 20.916 3.153 2.686 7.887 2.308 10.573-.846 2.686-3.153 2.307-7.887-.846-10.573-18.547-15.797-42.19-24.497-66.574-24.497h-16.078c-24.797 0-48.251 8.728-66.858 24.729-2.155-2.137-4.446-4.157-6.881-6.035-10.169-7.845-22.276-12.879-35.012-14.559-18.368-2.422-36.996-2.422-55.365 0-12.735 1.679-24.842 6.713-35.011 14.559-2.611 2.014-5.055 4.193-7.344 6.504-18.692-16.298-42.358-25.198-67.396-25.198h-16.078c-56.644 0-102.728 46.083-102.728 102.728v86.478c0 36.658 21.399 70.5 54.516 86.218 13.059 6.198 27.031 9.226 40.914 9.226 21.394-.001 42.563-7.206 59.811-21.084.664 15.54 4.37 30.6 10.792 44.43l-8.161 9.573c-17.652 20.706-21.101 49.762-8.787 74.025l4.199 8.273c2.209 4.353 6.604 6.992 11.354 6.992.705 0 1.418-.058 2.132-.178 5.529-.923 9.766-5.273 10.541-10.824l.878-6.279c.462-3.303 1.213-6.636 2.232-9.908 1.232-3.955-.975-8.159-4.93-9.391s-8.16.975-9.391 4.93c-1.184 3.799-2.076 7.675-2.656 11.533l-.982-1.937c-9.566-18.848-6.887-41.42 6.826-57.504l4.481-5.256c4.233 6.577 9.151 12.759 14.702 18.454-1.449 1.29-2.862 2.632-4.217 4.039-2.874 2.983-2.784 7.731.199 10.604 1.455 1.401 3.33 2.098 5.202 2.098 1.967 0 3.931-.769 5.403-2.297 1.43-1.484 2.925-2.891 4.472-4.215l2.259 1.998c.574 2.937 1.081 5.881 1.516 8.83l7.167 48.618 6.342 69.171c1.857 20.251 18.593 35.523 38.93 35.523s37.073-15.271 38.93-35.523l2.501-27.283c.378-4.125-2.659-7.775-6.784-8.153-4.13-.381-7.775 2.659-8.153 6.784l-2.501 27.283c-1.145 12.481-11.459 21.893-23.992 21.893s-22.848-9.412-23.992-21.893l-6.343-69.188c-.023-.243-.052-.485-.088-.732l-7.174-48.686c-1.915-12.988-5.091-25.904-9.441-38.39-2.768-7.945-4.729-13.802-5.827-17.407-1.208-3.962-5.396-6.192-9.361-4.988-3.962 1.208-6.195 5.398-4.988 9.361 1.071 3.514 2.895 8.987 5.409 16.236-13.098-15.676-21.18-34.822-23.262-55.161l36.549-51.822c19.239-27.279 13.943-65.047-12.057-85.982-3.227-2.598-7.947-2.087-10.545 1.138-2.598 3.226-2.088 7.948 1.138 10.545 1.762 1.419 3.393 2.943 4.903 4.549-11.187 1.489-19.848 11.086-19.848 22.673 0 12.617 10.264 22.881 22.881 22.881 3.171 0 6.192-.649 8.94-1.82-1.346 6.084-3.879 11.994-7.671 17.37l-24.301 34.456.713-18c.435-10.974-2.038-21.911-7.15-31.631l-8.365-15.903c-9.729-18.495-7.989-41.305 4.433-58.111 4.75-6.426 8.336-13.562 10.659-21.208l11.715-38.561c3.521-11.59 10.452-21.627 20.043-29.026 8.078-6.231 17.694-10.23 27.81-11.564 17.069-2.25 34.377-2.249 51.444 0 10.116 1.334 19.732 5.333 27.81 11.564 9.591 7.399 16.522 17.436 20.043 29.026l11.715 38.561c2.322 7.646 5.909 14.782 10.659 21.208 12.421 16.806 14.162 39.616 4.433 58.111l-8.365 15.903c-5.113 9.72-7.585 20.657-7.15 31.631l.713 18-24.301-34.456c-3.791-5.376-6.325-11.286-7.671-17.37 2.748 1.171 5.77 1.82 8.94 1.82 12.617 0 22.881-10.264 22.881-22.881 0-11.587-8.661-21.184-19.848-22.673 1.511-1.606 3.142-3.13 4.903-4.549 3.227-2.598 3.736-7.319 1.138-10.545-2.599-3.226-7.32-3.736-10.545-1.138-26 20.935-31.296 58.703-12.057 85.982l36.549 51.822c-2.169 21.192-10.853 41.089-24.937 57.115.033-.094.062-.189.095-.282 2.963-8.505 5.036-14.721 6.162-18.475 1.189-3.968-1.062-8.148-5.03-9.338-3.966-1.189-8.148 1.063-9.338 5.03-1.047 3.494-3.108 9.666-5.958 17.847-4.365 12.53-7.555 25.511-9.481 38.583l-7.156 48.561c-.035.241-.064.483-.089.744l-.761 8.297c-.378 4.125 2.659 7.775 6.784 8.153.232.021.464.032.693.032 3.833 0 7.103-2.924 7.46-6.816l.753-8.229 7.155-48.555c.399-2.705.865-5.405 1.379-8.098.371-.227.729-.486 1.066-.784l2.346-2.075c11.543 9.851 19.226 23.714 21.341 38.845l.878 6.279c.776 5.552 5.012 9.902 10.541 10.825.715.12 1.427.178 2.132.178 4.75 0 9.145-2.639 11.354-6.992l4.199-8.273c12.314-24.263 8.865-53.319-8.787-74.025l-8.161-9.573c6.317-13.604 10.002-28.4 10.752-43.671 17.071 13.381 37.849 20.325 58.851 20.325 13.88 0 27.856-3.029 40.914-9.226 33.117-15.717 54.516-49.56 54.516-86.218v-86.478c-.01-18.177-4.828-36.046-13.943-51.677zm-303.852 126.954c-4.346 0-7.881-3.535-7.881-7.881 0-4.345 3.535-7.88 7.881-7.88 4.345 0 7.88 3.535 7.88 7.88 0 4.346-3.535 7.881-7.88 7.881zm-25.382-122.768-5.669 18.66-10.651-9.24c-12.5-10.844-28.498-16.816-45.046-16.816h-36.517c-4.142 0-7.5 3.358-7.5 7.5s3.358 7.5 7.5 7.5h36.518c12.938 0 25.444 4.669 35.216 13.146l15.706 13.626-1.272 4.186c-1.823 6.003-4.639 11.605-8.369 16.651-15.82 21.404-18.036 50.455-5.646 74.011l8.365 15.903c3.888 7.391 5.768 15.709 5.438 24.054l-.752 19.007-7.276 6.357c-24.14 21.09-58.451 25.836-87.41 12.093-27.912-13.247-45.948-41.771-45.948-72.667v-86.478c.001-48.375 39.356-87.729 87.729-87.729h16.078c21.576 0 41.941 7.767 57.971 21.928-3.624 5.63-6.478 11.77-8.465 18.308zm158.354 114.888c0 4.346-3.535 7.881-7.881 7.881s-7.881-3.535-7.881-7.881c0-4.345 3.535-7.88 7.881-7.88s7.881 3.534 7.881 7.88zm16.527 157.176c13.713 16.084 16.392 38.656 6.826 57.504l-.982 1.936c-2.683-17.881-11.641-34.281-25.021-46.246 5.548-5.695 10.465-11.875 14.697-18.45z"/></g></g></svg>