<?xml version="1.0" encoding="iso-8859-1"?>
<!-- Generator: Adobe Illustrator 19.0.0, SVG Export Plug-In . SVG Version: 6.00 Build 0)  -->
<svg version="1.1" id="Capa_1" xmlns="http://www.w3.org/2000/svg" xmlns:xlink="http://www.w3.org/1999/xlink" x="0px" y="0px"
	 viewBox="0 0 512 512" style="enable-background:new 0 0 512 512;" xml:space="preserve">
<circle style="fill:#9B6A57;" cx="80.06" cy="102.709" r="70.05"/>
<path style="fill:#FBE067;" d="M92.473,88.418C71.96,67.905,41.89,62.775,16.597,73.027C4.464,98.97,9.105,130.816,30.528,152.239
	c20.513,20.513,50.583,25.643,75.876,15.391C118.536,141.686,113.896,109.841,92.473,88.418z"/>
<path style="opacity:0.1;enable-background:new    ;" d="M92.473,88.418C71.96,67.905,41.89,62.775,16.597,73.027
	c-1.798,3.845-3.218,7.821-4.28,11.873c19.548,0.761,63.291,10.221,76.646,87.285c5.944-0.758,11.811-2.273,17.44-4.554
	C118.536,141.686,113.896,109.841,92.473,88.418z"/>
<circle style="fill:#9B6A57;" cx="431.94" cy="102.709" r="70.05"/>
<path style="fill:#FBE067;" d="M419.527,88.418c20.513-20.513,50.582-25.643,75.876-15.391
	c12.133,25.944,7.492,57.789-13.931,79.212c-20.512,20.513-50.582,25.643-75.876,15.391
	C393.464,141.686,398.104,109.841,419.527,88.418z"/>
<path style="opacity:0.1;enable-background:new    ;" d="M419.527,88.418c20.513-20.513,50.582-25.643,75.876-15.391
	c1.798,3.845,3.218,7.821,4.28,11.873c-19.548,0.761-63.291,10.221-76.646,87.285c-5.944-0.758-11.811-2.273-17.44-4.554
	C393.464,141.686,398.104,109.841,419.527,88.418z"/>
<path style="fill:#9B6A57;" d="M504.5,298.992c0-137.243-111.257-248.5-248.5-248.5S7.5,161.749,7.5,298.992
	S118.757,479.333,256,479.333S504.5,436.234,504.5,298.992z"/>
<path style="opacity:0.1;enable-background:new    ;" d="M206.075,55.51C92.76,78.622,7.5,178.849,7.5,298.992
	c0,137.243,111.257,180.341,248.5,180.341c2.865,0,5.714-0.026,8.555-0.064C34.893,329.22,97.466,119.216,206.075,55.51z"/>
<path style="fill:#FBE067;" d="M355.496,331.408c0-54.95-44.546-156.421-99.496-156.421s-99.496,101.471-99.496,156.421
	S201.05,416.656,256,416.656S355.496,386.358,355.496,331.408z"/>
<path style="fill:#494F57;" d="M296.649,261.537L296.649,261.537c-25.932-11.251-55.367-11.251-81.298,0l0,0
	c-6.84,2.968-8.539,11.896-3.267,17.168l17.781,17.781c14.434,14.434,37.836,14.434,52.27,0l17.781-17.781
	C305.188,273.432,303.49,264.504,296.649,261.537z"/>
<path d="M256,424.155c29.369,0,56.022-8.405,75.047-23.667c20.901-16.766,31.949-40.653,31.949-69.08
	c0-56.113-45.184-163.921-106.996-163.921S149.004,275.295,149.004,331.408c0,28.427,11.048,52.314,31.949,69.08
	C199.979,415.75,226.631,424.155,256,424.155z M164.004,331.408c0-26.73,11.328-64.972,28.189-95.159
	c19.083-34.166,42.34-53.762,63.807-53.762s44.724,19.596,63.807,53.762c16.861,30.188,28.189,68.43,28.189,95.159
	c0,23.719-9.107,43.56-26.335,57.38c-16.373,13.134-39.692,20.367-65.661,20.367s-49.288-7.233-65.661-20.367
	C173.11,374.968,164.004,355.127,164.004,331.408z M224.561,301.788c8.398,8.398,19.563,13.023,31.439,13.023
	c11.876,0,23.041-4.625,31.438-13.022l17.782-17.78c4.232-4.233,6.092-10.272,4.973-16.153c-1.118-5.882-5.065-10.815-10.558-13.198
	c-27.73-12.033-59.539-12.031-87.27,0c-5.492,2.383-9.439,7.316-10.558,13.198c-1.119,5.881,0.74,11.92,4.974,16.153
	L224.561,301.788z M216.543,270.659c0.113-0.596,0.497-1.68,1.793-2.242c11.968-5.192,24.816-7.788,37.664-7.788
	c12.848,0,25.696,2.596,37.664,7.788c1.296,0.563,1.68,1.647,1.793,2.242c0.113,0.596,0.154,1.744-0.844,2.742l-17.782,17.781
	c-5.563,5.564-12.962,8.629-20.831,8.629c-7.869,0-15.268-3.065-20.832-8.63l-17.78-17.78
	C216.389,272.403,216.43,271.255,216.543,270.659z M402.073,268.693V245.69c0-4.143-3.357-7.5-7.5-7.5s-7.5,3.357-7.5,7.5v23.003
	c0,4.143,3.357,7.5,7.5,7.5S402.073,272.836,402.073,268.693z M297.462,341.108c-3.125-2.721-7.861-2.397-10.582,0.727
	c-7.793,8.942-19.048,14.071-30.88,14.071c-11.831,0-23.087-5.129-30.88-14.071c-2.723-3.122-7.46-3.447-10.582-0.727
	c-3.122,2.722-3.448,7.459-0.727,10.582c10.644,12.212,26.021,19.216,42.189,19.216c16.169,0,31.547-7.004,42.189-19.216
	C300.91,348.567,300.584,343.83,297.462,341.108z M124.927,268.693V245.69c0-4.143-3.358-7.5-7.5-7.5c-4.143,0-7.5,3.357-7.5,7.5
	v23.003c0,4.143,3.357,7.5,7.5,7.5C121.569,276.193,124.927,272.836,124.927,268.693z M475.412,166.922
	c4.066-2.755,7.873-5.889,11.365-9.379c4.918-4.919,9.145-10.45,12.561-16.439c2.053-3.598,0.799-8.179-2.799-10.231
	c-3.599-2.053-8.179-0.8-10.23,2.799c-2.754,4.828-6.165,9.291-10.138,13.264c-2.741,2.741-5.72,5.212-8.9,7.391
	c-8.862-12.884-18.955-25.059-30.25-36.354c-5.935-5.936-12.114-11.539-18.508-16.811c1.918-2.633,4.014-5.134,6.319-7.439
	c17.112-17.114,42.332-22.756,64.99-14.781c1.975,4.822,3.354,9.91,4.081,15.192c0.517,3.757,3.731,6.479,7.42,6.479
	c0.341,0,0.686-0.023,1.032-0.071c4.104-0.564,6.972-4.349,6.407-8.452c-2.319-16.859-9.922-32.147-21.984-44.211
	c-14.646-14.646-34.12-22.712-54.833-22.712s-40.187,8.065-54.833,22.712c-5.536,5.536-10.132,11.768-13.734,18.591
	C330.149,51.102,293.7,42.991,256,42.991s-74.149,8.11-107.376,23.476c-3.602-6.823-8.199-13.054-13.734-18.591
	c-30.236-30.234-79.43-30.235-109.666,0.001c-6.418,6.419-11.459,13.697-15.153,21.462c-0.161,0.286-0.303,0.581-0.426,0.885
	c-13.182,28.651-7.992,63.746,15.58,87.319c3.491,3.491,7.297,6.625,11.364,9.379C12.742,206.379,0,251.704,0,298.991
	c0,30.981,5.602,58.619,16.653,82.145c1.761,3.75,6.231,5.361,9.977,3.6c3.749-1.761,5.361-6.228,3.6-9.977
	C20.124,353.243,15,327.752,15,298.991c0-46.747,13.231-91.456,37.902-129.87c0.269-0.342,0.521-0.701,0.733-1.098
	c0.018-0.033,0.031-0.068,0.048-0.102c9.132-14.034,19.785-27.224,31.903-39.343c7.013-7.013,14.385-13.537,22.069-19.562
	c0.338-0.223,0.655-0.466,0.944-0.732c12.222-9.486,25.229-17.712,38.865-24.603c0.13-0.044,0.26-0.082,0.389-0.134
	c0.51-0.204,0.982-0.461,1.419-0.757C182.048,66.574,218.363,57.991,256,57.991s73.952,8.583,106.727,24.799
	c0.437,0.296,0.909,0.553,1.419,0.757c0.129,0.052,0.26,0.09,0.39,0.134c13.635,6.891,26.643,15.117,38.865,24.603
	c0.29,0.266,0.607,0.509,0.944,0.732c7.684,6.025,15.056,12.549,22.069,19.562c12.118,12.118,22.771,25.308,31.903,39.343
	c0.017,0.034,0.03,0.068,0.048,0.102c0.212,0.397,0.465,0.756,0.734,1.098C483.769,207.535,497,252.244,497,298.991
	c0,31.811-6.269,59.574-18.631,82.521c-11.45,21.254-28.479,39-50.61,52.745c-40.145,24.934-97.933,37.576-171.759,37.576
	c-90.852,0-156.96-19.024-196.488-56.543c-3.004-2.852-7.752-2.729-10.603,0.276c-2.852,3.004-2.729,7.751,0.276,10.602
	c42.41,40.255,111.992,60.665,206.815,60.665c76.665,0,137.116-13.402,179.673-39.834C486.32,415.543,512,365.746,512,298.991
	C512,251.704,499.258,206.379,475.412,166.922z M74.98,117.972c-11.295,11.296-21.389,23.471-30.251,36.354
	c-3.18-2.179-6.158-4.65-8.899-7.39c-18.354-18.354-22.888-45.37-13.615-68.009c22.648-7.957,47.849-2.31,64.952,14.795
	c2.305,2.304,4.401,4.805,6.319,7.439C87.094,106.432,80.916,112.036,74.98,117.972z M105.364,91.952
	c-2.306-3.128-4.838-6.087-7.588-8.837C80.597,65.936,56.829,58.08,33.493,60.958c0.754-0.84,1.531-1.666,2.338-2.474
	c24.385-24.387,64.066-24.387,88.451,0c4.381,4.38,8.024,9.3,10.903,14.674C124.864,78.698,114.906,84.978,105.364,91.952z
	 M406.636,91.952c-9.542-6.974-19.5-13.254-29.821-18.793c2.879-5.374,6.522-10.294,10.903-14.674
	c11.813-11.813,27.52-18.319,44.226-18.319c16.706,0,32.413,6.506,44.226,18.319c0.805,0.805,1.575,1.633,2.331,2.473
	c-23.334-2.876-47.099,4.981-64.276,22.157C411.474,85.865,408.942,88.824,406.636,91.952z"/>
<g>
</g>
<g>
</g>
<g>
</g>
<g>
</g>
<g>
</g>
<g>
</g>
<g>
</g>
<g>
</g>
<g>
</g>
<g>
</g>
<g>
</g>
<g>
</g>
<g>
</g>
<g>
</g>
<g>
</g>
</svg>
