<svg id="Capa_1" enable-background="new 0 0 509.68 509.68" height="512" viewBox="0 0 509.68 509.68" width="512" xmlns="http://www.w3.org/2000/svg"><g><g><path d="m436.018 188.821 5.323-20.399c16.64-63.775-17.682-129.797-79.442-152.816-61.76-23.019-130.921 4.434-160.081 63.543l-8.955 18.153c-14.235 28.854-34.29 54.565-59.391 74.694-24.974 20.027-45.083 46.775-57.239 78.843-36.286 95.719 12.507 203.591 108.363 239.512 96.094 36.01 203.132-12.816 238.957-108.934 11.925-31.996 14.448-65.191 8.962-96.561-5.584-31.934-4.682-64.666 3.503-96.035z" fill="#a6d786"/><path d="m143.206 274.542c12.156-32.067 32.265-58.815 57.239-78.842 25.1-20.129 45.156-45.84 59.391-74.694l8.955-18.153c23.391-47.416 72.518-74.465 122.922-71.427-9.013-6.434-18.987-11.784-29.814-15.819-61.76-23.019-130.921 4.435-160.081 63.543l-8.955 18.153c-14.234 28.854-34.29 54.565-59.391 74.694-24.974 20.027-45.083 46.775-57.239 78.843-36.286 95.718 12.507 203.59 108.363 239.511 12.511 4.688 25.216 7.933 37.917 9.828-76.243-44.957-111.716-140.146-79.307-225.637z" fill="#94cf6f"/><path d="m197.708 455.359c-36.979-13.857-66.382-41.461-82.793-77.727-16.417-36.278-17.746-76.603-3.742-113.548 9.375-24.729 25.169-46.492 45.676-62.936 28.631-22.959 52.672-53.152 69.525-87.315l8.955-18.151c20.756-42.073 69.558-61.445 113.518-45.061s68.179 62.972 56.335 108.366l-5.323 20.4c-9.425 36.122-10.822 73.774-4.155 111.906 4.504 25.755 2.026 52.406-7.168 77.073-13.823 37.088-41.257 66.571-77.251 83.02-35.988 16.447-76.228 17.893-113.307 4.074-.003-.001-.27-.101-.27-.101z" fill="#fbe88c"/><path d="m235.33 95.682-8.955 18.151c-16.853 34.163-40.895 64.356-69.525 87.315-20.507 16.444-36.301 38.207-45.676 62.936-14.004 36.945-12.676 77.27 3.742 113.548 9.355 20.673 22.934 38.532 39.729 52.634-25.542-46.143-31.504-102.794-11.438-155.725 12.156-32.067 32.265-58.815 57.239-78.842 25.1-20.129 45.156-45.84 59.391-74.694l8.955-18.153c12.678-25.698 32.923-45.418 56.826-57.604-36.876-3.572-73.147 15.688-90.288 50.434z" fill="#fbe372"/><ellipse cx="251.909" cy="310.711" fill="#b37e67" rx="107.412" ry="96.986" transform="matrix(.349 -.937 .937 .349 -127.215 438.246)"/></g><g><path d="m437.674 73.271c-15.562-29.936-41.542-52.91-73.156-64.692-31.614-11.783-66.295-11.417-97.652 1.03s-56.848 35.966-71.773 66.222l-8.956 18.152c-13.971 28.321-33.804 53.274-57.356 72.162-26.752 21.452-47.348 49.819-59.56 82.035-18.265 48.181-16.554 100.724 4.817 147.949 21.365 47.214 59.695 83.17 107.928 101.245 21.79 8.165 44.806 12.307 67.852 12.306 10.538 0 21.085-.866 31.52-2.609 32.249-5.387 62.841-18.978 88.469-39.304 3.245-2.573 3.79-7.291 1.216-10.536s-7.292-3.79-10.536-1.216c-23.645 18.752-51.868 31.291-81.62 36.261-30.657 5.124-62.345 2.029-91.636-8.948-44.471-16.664-79.816-49.828-99.525-93.382-19.715-43.566-21.298-92.024-4.458-136.449 11.264-29.712 30.254-55.871 54.919-75.649 25.25-20.25 46.49-46.955 61.424-77.228l8.955-18.152c13.28-26.919 35.958-47.843 63.856-58.917 27.9-11.074 58.753-11.4 86.88-.917 28.126 10.483 51.24 30.924 65.086 57.557 13.845 26.632 17.296 57.295 9.718 86.338l-5.322 20.399c-8.337 31.951-9.56 65.334-3.634 99.221 5.418 30.977 2.443 63.015-8.602 92.649-7.749 20.79-19.097 39.674-33.729 56.126-2.753 3.096-2.475 7.836.62 10.589 3.098 2.753 7.835 2.475 10.589-.62 15.869-17.845 28.175-38.319 36.574-60.856 11.976-32.13 15.199-66.872 9.322-100.472-5.552-31.754-4.418-62.993 3.372-92.85l5.322-20.399c8.517-32.645 4.638-67.11-10.924-97.045z"/><path d="m249.794 472.372c22.021-.001 43.982-4.737 64.609-14.164 37.814-17.28 66.639-48.257 81.161-87.223 9.658-25.915 12.262-53.919 7.528-80.984-6.481-37.067-5.128-73.646 4.023-108.72l5.323-20.4c3.263-12.504 4.056-25.31 2.357-38.062-.547-4.105-4.322-6.995-8.425-6.444-4.105.547-6.991 4.319-6.444 8.425 1.44 10.814.767 21.681-2.002 32.294l-5.323 20.4c-9.698 37.169-11.14 75.891-4.285 115.091 4.274 24.443 1.92 49.742-6.808 73.162-13.124 35.211-39.171 63.203-73.341 78.818-34.166 15.613-72.366 16.989-107.57 3.867-.021-.008-.041-.016-.061-.022l-.198-.074c-35.098-13.151-63.009-39.359-78.592-73.795-15.589-34.447-16.854-72.73-3.562-107.797 8.901-23.479 23.894-44.138 43.356-59.743 29.479-23.64 54.224-54.709 71.56-89.849l8.953-18.151c19.047-38.609 63.831-56.387 104.174-41.352 19.303 7.194 35.204 21.123 44.774 39.221 1.936 3.661 6.474 5.062 10.136 3.124 3.662-1.937 5.061-6.475 3.124-10.136-11.292-21.354-30.042-37.784-52.796-46.264-47.573-17.734-100.398 3.232-122.864 48.77l-8.954 18.151c-16.372 33.188-39.71 62.506-67.49 84.782-21.551 17.28-38.148 40.147-47.998 66.129-14.717 38.824-13.323 81.191 3.922 119.298 17.239 38.097 48.135 67.097 87.01 81.663 0 0 .116.038.272.09l-.004.01c17.706 6.599 36.09 9.885 54.435 9.885z"/><path d="m286.185 399.177c-22.345 11.621-46.909 13.45-69.169 5.155-19.442-7.247-35.561-21.922-45.385-41.323-1.871-3.696-6.382-5.173-10.08-3.303-3.695 1.872-5.174 6.385-3.303 10.08 11.533 22.773 30.543 40.034 53.529 48.601 10.902 4.064 22.247 6.081 33.663 6.081 16.109 0 32.356-4.021 47.665-11.983 25.9-13.471 46.041-36.655 56.71-65.283 22.129-59.372-3.788-124.045-57.774-144.166-26.287-9.8-55.171-7.702-81.328 5.901-25.9 13.471-46.041 36.656-56.71 65.284-7.598 20.384-9.79 42.17-6.341 63.005.677 4.086 4.526 6.851 8.625 6.174 4.086-.677 6.851-4.538 6.174-8.625-3.022-18.254-1.087-37.382 5.597-55.315 9.371-25.142 26.978-45.461 49.576-57.215 22.343-11.62 46.906-13.453 69.169-5.154 46.235 17.233 68.198 73.251 48.958 124.873-9.371 25.14-26.978 45.46-49.576 57.213z"/></g></g></svg>