<svg id="Layer_1" enable-background="new 0 0 512 512" height="512" viewBox="0 0 512 512" width="512" xmlns="http://www.w3.org/2000/svg"><g><path d="m45.112 498.125c-8.532 8.535-22.421 8.57-30.995-.007-2.693-2.694-4.538-5.911-5.535-9.313-2.255-7.658-.233-16.285 5.987-22.154l120.398-112.989 25.107 25.116-114.608 118.979c-.121.121-.234.248-.354.368z" fill="#f79e60"/><path d="m45.112 498.125c-8.532 8.535-22.421 8.57-30.995-.007-2.693-2.694-4.538-5.911-5.535-9.313 7.457 2.185 15.833.325 21.686-5.53.12-.12.233-.247.353-.368l114.61-118.977 14.844 14.849-114.609 118.978c-.121.121-.234.248-.354.368z" fill="#d77d41"/><path d="m241.787 458.16c-23.432-23.441-36.049-10.819-59.475-34.266-23.432-23.441-10.815-36.062-34.247-59.503s-36.049-10.819-59.482-34.259c-23.439-23.434-10.822-36.055-34.254-59.496l40.064-40.065 182.496-182.533 1.583-1.584c11.515-11.519 24.627-20.464 38.615-26.863 43.804-20.004 96.266-14.899 135.652 15.337 4.58 3.493 8.97 7.333 13.155 11.519 40.22 40.277 49.169 99.971 26.839 148.867-6.39 14.001-15.339 27.111-26.846 38.622l-1.59 1.591z" fill="#fdeda5"/><path d="m241.787 458.16c-23.432-23.441-36.049-10.819-59.475-34.266-23.432-23.441-10.815-36.062-34.247-59.503s-36.049-10.819-59.482-34.259c-23.439-23.434-10.822-36.055-34.254-59.496l40.064-40.065c-7.577 12.643-5.909 29.274 4.983 40.171l112.114 112.154c12.858 12.862 33.703 12.869 46.56.007l183.457-183.523c44.864-44.88 48.61-115.308 11.232-164.452 4.58 3.493 8.97 7.333 13.155 11.519 40.22 40.277 49.169 99.971 26.839 148.867-6.39 14.001-15.339 27.111-26.846 38.622l-1.59 1.591z" fill="#fbdf63"/><path d="m328.482 372.197-34.643 34.641c-16.01-16.002-26.959-15.203-39.768-20.535-5.945-2.482-12.292-6.286-19.728-13.725-23.439-23.448-10.822-36.069-34.254-59.51-23.439-23.434-36.049-10.819-59.489-34.252-23.432-23.441-10.815-36.062-34.254-59.496l34.65-34.634c23.439 23.434 10.815 36.048 34.247 59.489s36.056 10.826 59.482 34.259c23.446 23.441 10.829 36.062 34.261 59.503 7.599 7.601 14.066 11.413 20.131 13.888 12.632 5.155 23.524 4.539 39.365 20.372z" fill="#ed2061"/><path d="m413.58 286.644-34.643 34.641c-15.706-15.712-26.549-15.231-39.053-20.244-6.15-2.475-12.702-6.286-20.435-14.022-23.446-23.441-10.829-36.062-34.261-59.503-23.439-23.434-36.049-10.819-59.489-34.252-23.432-23.441-10.815-36.062-34.247-59.503l34.643-34.627c23.439 23.434 10.815 36.048 34.247 59.489 23.439 23.434 36.056 10.826 59.489 34.252 23.439 23.448 10.822 36.069 34.254 59.51 7.733 7.722 14.285 11.533 20.435 14.008 12.503 5.027 23.346 4.546 39.06 20.251z" fill="#a267f8"/><path d="m465.887 233.936-1.59 1.591c-15.6-15.549-26.408-15.132-38.834-20.096-6.185-2.468-12.766-6.279-20.555-14.057-23.432-23.441-10.815-36.063-34.254-59.51-23.439-23.434-36.049-10.819-59.489-34.252-23.432-23.441-10.808-36.055-34.254-59.496l-.021-.078 1.583-1.584c11.515-11.519 24.627-20.464 38.615-26.863 15.925 19.693 7.415 32.067 28.726 53.387 23.432 23.441 36.049 10.819 59.482 34.259 23.439 23.434 10.822 36.055 34.254 59.496 6.729 6.718 12.561 10.486 18.018 12.975 11.776 5.388 21.785 4.865 35.166 15.606-6.391 14-15.34 27.11-26.847 38.622z" fill="#00c2f3"/><path d="m441.507 199.38c6.121-6.124 11.472-12.721 16.06-19.672 11.776 5.388 21.785 4.865 35.166 15.606-6.39 14.001-15.339 27.111-26.846 38.622l-1.59 1.591c-15.6-15.549-26.408-15.132-38.834-20.096z" fill="#1e90ff"/><path d="m374.519 266.392c12.504 5.027 23.347 4.547 39.061 20.252l-34.643 34.641c-15.706-15.712-26.549-15.231-39.053-20.244z" fill="#7e42b9"/><path d="m328.482 372.197-34.643 34.641c-16.01-16.002-26.959-15.203-39.768-20.535 1.393-1.011 2.721-2.142 3.98-3.401l31.066-31.077c12.632 5.155 23.524 4.539 39.365 20.372z" fill="#c71e54"/></g><g><path d="m511.985 138.105c-.06-4.142-3.475-7.477-7.608-7.39-4.142.06-7.45 3.466-7.39 7.608.23 15.83-2.436 31.22-7.76 45.579-6.605-3.858-12.543-5.646-17.961-7.277-8.681-2.613-16.178-4.87-26.535-15.258-10.361-10.393-12.613-17.916-15.22-26.627-2.784-9.305-5.94-19.852-18.968-32.918-13.03-13.068-23.55-16.234-32.831-19.027-8.68-2.612-16.176-4.868-26.531-15.255-10.36-10.391-12.611-17.914-15.217-26.625-1.633-5.457-3.423-11.439-7.305-18.098 13.761-5.136 28.472-7.817 43.593-7.817 33.295 0 64.604 12.994 88.171 36.588.005.004.009.008.013.013 14.299 14.346 25.001 32.097 30.95 51.335 1.224 3.958 5.425 6.173 9.381 4.949 3.957-1.224 6.173-5.423 4.949-9.381-6.649-21.502-18.593-41.341-34.546-57.382-.015-.015-.029-.029-.043-.044-26.412-26.489-61.526-41.078-98.875-41.078-37.333 0-72.428 14.579-98.82 41.049l-223.685 224.35c-2.918 2.927-2.918 7.664 0 10.591 10.36 10.391 12.611 17.914 15.217 26.625 2.784 9.305 5.939 19.851 18.966 32.916 13.029 13.068 23.549 16.234 32.831 19.028 1.459.439 2.885.868 4.296 1.328l-27.798 26.159c-3.017 2.839-3.161 7.585-.322 10.602 1.476 1.569 3.467 2.36 5.463 2.36 1.843 0 3.69-.675 5.138-2.038l31.868-29.989c2.471 1.791 5.073 4.012 7.885 6.833 2.801 2.81 5.009 5.411 6.791 7.882l-110.311 114.846c-2.696 2.83-6.328 4.413-10.227 4.457-3.885.006-7.564-1.457-10.323-4.224-2.778-2.787-4.276-6.493-4.219-10.437.057-3.943 1.662-7.604 4.503-10.293l57.472-54.083c3.017-2.839 3.161-7.585.322-10.602-2.838-3.017-7.585-3.161-10.602-.322l-57.488 54.099c-5.82 5.509-9.089 12.961-9.206 20.984-.116 8.024 2.936 15.568 8.594 21.245 5.56 5.576 12.924 8.634 20.775 8.634.114 0 .229-.001.343-.002 7.979-.091 15.407-3.326 20.896-9.088l106.529-110.91c.474 1.459.914 2.932 1.366 4.44 2.783 9.306 5.938 19.853 18.961 32.92 13.028 13.071 23.546 16.238 32.826 19.032 8.678 2.613 16.172 4.869 26.527 15.258 1.407 1.412 3.318 2.206 5.312 2.206s3.905-.793 5.312-2.206l223.647-224.39c26.927-27.015 41.451-62.94 40.894-101.155zm-98.822 138.028c-10.512-8.844-19.333-11.5-27.252-13.883-8.68-2.613-16.177-4.87-26.534-15.258-10.362-10.393-12.613-17.916-15.22-26.627-2.785-9.305-5.941-19.852-18.969-32.918-10.645-10.676-19.569-14.666-26.896-17.161-3.917-1.334-8.181.76-9.518 4.682-1.335 3.921.761 8.182 4.682 9.518 5.974 2.035 12.666 5.084 21.109 13.553 10.362 10.393 12.613 17.916 15.22 26.627 2.785 9.305 5.941 19.852 18.968 32.918 13.031 13.07 23.552 16.237 32.834 19.031 7.041 2.12 13.304 4.005 20.945 10.185l-23.93 24.01c-10.519-8.854-19.343-11.511-27.265-13.895-8.681-2.613-16.178-4.87-26.535-15.258-10.362-10.393-12.613-17.916-15.22-26.627-2.785-9.305-5.941-19.852-18.968-32.917-13.03-13.068-23.55-16.234-32.832-19.028-8.679-2.612-16.175-4.868-26.531-15.255-10.36-10.391-12.611-17.914-15.217-26.625-2.381-7.958-5.034-16.824-13.901-27.397l23.931-24.002c6.176 7.676 8.058 13.965 10.174 21.036 2.784 9.305 5.939 19.851 18.966 32.916 1.465 1.47 3.388 2.205 5.311 2.205 1.916 0 3.832-.729 5.295-2.189 2.933-2.924 2.94-7.673.016-10.606-10.36-10.391-12.611-17.914-15.217-26.625-2.382-7.96-5.036-16.828-13.908-27.404l40.157-40.276c6.166 7.669 8.046 13.953 10.161 21.02 2.783 9.305 5.938 19.851 18.965 32.916 13.03 13.068 23.55 16.234 32.831 19.028 8.68 2.612 16.176 4.868 26.531 15.255 10.362 10.393 12.613 17.916 15.221 26.627 2.784 9.305 5.94 19.852 18.968 32.917 13.031 13.07 23.552 16.237 32.834 19.031 7.042 2.12 13.306 4.006 20.951 10.19zm-262.28-59.671c2.784 9.305 5.939 19.851 18.966 32.916 13.03 13.069 23.549 16.235 32.831 19.028 8.679 2.612 16.175 4.868 26.531 15.255 10.361 10.393 12.613 17.916 15.22 26.627 2.784 9.305 5.94 19.852 18.968 32.918 13.031 13.07 23.552 16.237 32.834 19.031 7.043 2.12 13.307 4.006 20.953 10.192l-23.931 24.01c-10.522-8.86-19.349-11.517-27.273-13.902-8.681-2.613-16.177-4.87-26.535-15.258-10.362-10.393-12.613-17.916-15.22-26.627-2.784-9.305-5.94-19.852-18.968-32.918-13.029-13.068-23.549-16.234-32.831-19.028-8.68-2.612-16.175-4.868-26.532-15.255-10.36-10.391-12.611-17.914-15.217-26.625-2.381-7.96-5.035-16.829-13.908-27.405l23.931-24.002c6.183 7.679 8.065 13.969 10.181 21.043zm149.673 131.412c-8.681-2.613-16.177-4.87-26.535-15.258-10.362-10.393-12.613-17.916-15.22-26.627-2.784-9.305-5.94-19.852-18.968-32.918-13.03-13.068-23.549-16.234-32.831-19.027-8.68-2.612-16.175-4.868-26.532-15.255-10.36-10.391-12.611-17.914-15.217-26.625-2.382-7.962-5.036-16.833-13.914-27.413l40.157-40.276c6.171 7.672 8.053 13.959 10.167 21.028 2.784 9.305 5.939 19.851 18.966 32.916 13.029 13.068 23.549 16.235 32.831 19.028 8.68 2.612 16.175 4.868 26.531 15.255 10.362 10.393 12.613 17.916 15.22 26.627 2.785 9.305 5.941 19.852 18.968 32.917 13.032 13.07 23.552 16.237 32.834 19.031 7.046 2.121 13.311 4.007 20.959 10.197l-40.157 40.29c-10.515-8.85-19.338-11.506-27.259-13.89zm-58.646 100.081c-10.53-8.877-19.364-11.537-27.293-13.924-8.678-2.613-16.172-4.869-26.527-15.258-10.358-10.393-12.609-17.917-15.214-26.629-2.783-9.306-5.938-19.853-18.962-32.92-13.03-13.068-23.549-16.234-32.831-19.028-8.679-2.612-16.175-4.868-26.531-15.255-10.36-10.391-12.611-17.914-15.217-26.625-2.381-7.958-5.035-16.826-13.904-27.401l40.705-40.826c6.177 7.676 8.059 13.965 10.174 21.036 2.784 9.305 5.939 19.851 18.966 32.916 13.029 13.068 23.549 16.234 32.831 19.028 8.68 2.612 16.175 4.868 26.532 15.255 10.362 10.393 12.613 17.916 15.22 26.627 2.784 9.305 5.94 19.852 18.968 32.918 13.031 13.07 23.551 16.237 32.834 19.031 7.048 2.122 13.316 4.008 20.968 10.204zm221.966-222.838c-10.482-8.8-19.282-11.449-27.185-13.827-8.681-2.613-16.177-4.87-26.534-15.258-10.362-10.393-12.613-17.916-15.221-26.627-2.784-9.305-5.94-19.852-18.968-32.918-13.03-13.068-23.55-16.234-32.831-19.028-8.68-2.612-16.176-4.868-26.531-15.255-10.36-10.391-12.611-17.914-15.218-26.625-2.374-7.938-5.02-16.779-13.834-27.318 8.302-7.717 17.478-14.181 27.297-19.297 3.56 5.621 5.061 10.636 6.741 16.251 2.784 9.305 5.939 19.851 18.965 32.916 13.03 13.069 23.55 16.235 32.831 19.028 8.68 2.612 16.176 4.868 26.531 15.255 10.362 10.393 12.614 17.916 15.221 26.627 2.784 9.305 5.94 19.852 18.967 32.918 13.032 13.07 23.553 16.237 32.835 19.031 5.588 1.682 10.578 3.185 16.169 6.742-5.093 9.842-11.535 19.044-19.235 27.385z"/></g></svg>